<mxfile host="app.diagrams.net" modified="2022-01-29T04:02:29.692Z" agent="5.0 (Windows NT 10.0; Win64; x64) AppleWebKit/537.36 (KHTML, like Gecko) Chrome/97.0.4692.99 Safari/537.36" etag="MXtBoriF-jNWUkITpIf0" version="16.4.7" type="github">
  <diagram id="jBWRJJ74-NsUcopFF3-W" name="第 1 页">
    <mxGraphModel dx="981" dy="532" grid="0" gridSize="10" guides="1" tooltips="1" connect="1" arrows="1" fold="1" page="0" pageScale="1" pageWidth="850" pageHeight="1100" math="0" shadow="0">
      <root>
        <mxCell id="0" />
        <mxCell id="1" parent="0" />
        <mxCell id="3vBUMYRX011UeejNerha-43" value="" style="html=1;shadow=0;dashed=1;shape=mxgraph.bootstrap.rrect;rSize=5;strokeColor=#343A40;strokeWidth=1;fillColor=none;fontColor=#343A40;whiteSpace=wrap;align=center;verticalAlign=middle;spacingLeft=0;fontStyle=0;fontSize=16;spacing=5;" vertex="1" parent="1">
          <mxGeometry x="738" y="92" width="494" height="281" as="geometry" />
        </mxCell>
        <mxCell id="3vBUMYRX011UeejNerha-2" value="&lt;b&gt;&lt;font color=&quot;#666666&quot;&gt;ARM&amp;nbsp;&lt;/font&gt;&lt;/b&gt;" style="html=1;shadow=0;dashed=0;shape=mxgraph.bootstrap.rrect;rSize=5;strokeColor=#9673a6;strokeWidth=1;fillColor=#e1d5e7;whiteSpace=wrap;align=left;verticalAlign=middle;spacingLeft=0;fontStyle=0;fontSize=16;spacing=5;" vertex="1" parent="1">
          <mxGeometry x="80" y="360" width="440" height="80" as="geometry" />
        </mxCell>
        <mxCell id="3vBUMYRX011UeejNerha-5" value="Cortex-M3" style="html=1;shadow=0;dashed=0;shape=mxgraph.bootstrap.rrect;rSize=5;strokeColor=#666666;strokeWidth=1;fillColor=#666666;fontColor=#FFFFFF;whiteSpace=wrap;align=center;verticalAlign=middle;spacingLeft=0;fontStyle=0;fontSize=16;spacing=5;" vertex="1" parent="1">
          <mxGeometry x="280" y="380" width="100" height="40" as="geometry" />
        </mxCell>
        <mxCell id="3vBUMYRX011UeejNerha-6" value="Cortex-M4" style="html=1;shadow=0;dashed=0;shape=mxgraph.bootstrap.rrect;rSize=5;strokeColor=#666666;strokeWidth=1;fillColor=#666666;fontColor=#FFFFFF;whiteSpace=wrap;align=center;verticalAlign=middle;spacingLeft=0;fontStyle=0;fontSize=16;spacing=5;" vertex="1" parent="1">
          <mxGeometry x="400" y="380" width="100" height="40" as="geometry" />
        </mxCell>
        <mxCell id="3vBUMYRX011UeejNerha-9" value="Cortex-M0" style="html=1;shadow=0;dashed=0;shape=mxgraph.bootstrap.rrect;rSize=5;strokeColor=#666666;strokeWidth=1;fillColor=#666666;fontColor=#FFFFFF;whiteSpace=wrap;align=center;verticalAlign=middle;spacingLeft=0;fontStyle=0;fontSize=16;spacing=5;" vertex="1" parent="1">
          <mxGeometry x="160" y="380" width="100" height="40" as="geometry" />
        </mxCell>
        <mxCell id="3vBUMYRX011UeejNerha-12" value="&lt;b&gt;内核层&lt;/b&gt;" style="html=1;shadow=0;dashed=0;shape=mxgraph.bootstrap.rrect;rSize=5;strokeColor=#6c8ebf;strokeWidth=1;fillColor=#dae8fc;whiteSpace=wrap;align=left;verticalAlign=middle;spacingLeft=0;fontStyle=0;fontSize=16;spacing=5;" vertex="1" parent="1">
          <mxGeometry x="80" y="260" width="320" height="80" as="geometry" />
        </mxCell>
        <mxCell id="3vBUMYRX011UeejNerha-14" value="LinRTOS" style="html=1;shadow=0;dashed=0;shape=mxgraph.bootstrap.rrect;rSize=5;strokeColor=none;strokeWidth=1;fillColor=#0085FC;fontColor=#FFFFFF;whiteSpace=wrap;align=center;verticalAlign=middle;spacingLeft=0;fontStyle=0;fontSize=16;spacing=5;" vertex="1" parent="1">
          <mxGeometry x="160" y="280" width="100" height="40" as="geometry" />
        </mxCell>
        <mxCell id="3vBUMYRX011UeejNerha-15" value="libcpu" style="html=1;shadow=0;dashed=0;shape=mxgraph.bootstrap.rrect;rSize=5;strokeColor=none;strokeWidth=1;fillColor=#0085FC;fontColor=#FFFFFF;whiteSpace=wrap;align=center;verticalAlign=middle;spacingLeft=0;fontStyle=0;fontSize=16;spacing=5;" vertex="1" parent="1">
          <mxGeometry x="280" y="280" width="100" height="40" as="geometry" />
        </mxCell>
        <mxCell id="3vBUMYRX011UeejNerha-16" value="安全框架" style="html=1;shadow=0;dashed=0;shape=mxgraph.bootstrap.rrect;rSize=5;strokeColor=#36393d;strokeWidth=1;fillColor=#ffff88;whiteSpace=wrap;align=center;verticalAlign=middle;spacingLeft=0;fontStyle=0;fontSize=16;spacing=5;" vertex="1" parent="1">
          <mxGeometry x="420" y="160" width="100" height="180" as="geometry" />
        </mxCell>
        <mxCell id="3vBUMYRX011UeejNerha-18" value="&lt;b&gt;组件&lt;/b&gt;" style="html=1;shadow=0;dashed=0;shape=mxgraph.bootstrap.rrect;rSize=5;strokeColor=#36393d;strokeWidth=1;fillColor=#eeeeee;whiteSpace=wrap;align=left;verticalAlign=middle;spacingLeft=0;fontStyle=0;fontSize=16;spacing=5;" vertex="1" parent="1">
          <mxGeometry x="80" y="160" width="320" height="80" as="geometry" />
        </mxCell>
        <mxCell id="3vBUMYRX011UeejNerha-20" value="OTA" style="html=1;shadow=0;dashed=0;shape=mxgraph.bootstrap.rrect;rSize=5;strokeColor=none;strokeWidth=1;fillColor=#6C767D;fontColor=#FFFFFF;whiteSpace=wrap;align=center;verticalAlign=middle;spacingLeft=0;fontStyle=0;fontSize=14;spacing=5;" vertex="1" parent="1">
          <mxGeometry x="160" y="170" width="50" height="20" as="geometry" />
        </mxCell>
        <mxCell id="3vBUMYRX011UeejNerha-22" value="文件系统" style="html=1;shadow=0;dashed=0;shape=mxgraph.bootstrap.rrect;rSize=5;strokeColor=none;strokeWidth=1;fillColor=#6C767D;fontColor=#FFFFFF;whiteSpace=wrap;align=center;verticalAlign=middle;spacingLeft=0;fontStyle=0;fontSize=14;spacing=5;" vertex="1" parent="1">
          <mxGeometry x="160" y="210" width="80" height="20" as="geometry" />
        </mxCell>
        <mxCell id="3vBUMYRX011UeejNerha-23" value="网络组件" style="html=1;shadow=0;dashed=0;shape=mxgraph.bootstrap.rrect;rSize=5;strokeColor=none;strokeWidth=1;fillColor=#6C767D;fontColor=#FFFFFF;whiteSpace=wrap;align=center;verticalAlign=middle;spacingLeft=0;fontStyle=0;fontSize=14;spacing=5;" vertex="1" parent="1">
          <mxGeometry x="230" y="170" width="80" height="20" as="geometry" />
        </mxCell>
        <mxCell id="3vBUMYRX011UeejNerha-24" value="功耗管理" style="html=1;shadow=0;dashed=0;shape=mxgraph.bootstrap.rrect;rSize=5;strokeColor=none;strokeWidth=1;fillColor=#6C767D;fontColor=#FFFFFF;whiteSpace=wrap;align=center;verticalAlign=middle;spacingLeft=0;fontStyle=0;fontSize=14;spacing=5;" vertex="1" parent="1">
          <mxGeometry x="260" y="210" width="90" height="20" as="geometry" />
        </mxCell>
        <mxCell id="3vBUMYRX011UeejNerha-25" value="&lt;b&gt;业务逻辑&lt;/b&gt;" style="html=1;shadow=0;dashed=0;shape=mxgraph.bootstrap.rrect;rSize=5;strokeColor=#82b366;strokeWidth=1;fillColor=#d5e8d4;whiteSpace=wrap;align=center;verticalAlign=middle;spacingLeft=0;fontStyle=0;fontSize=16;spacing=5;" vertex="1" parent="1">
          <mxGeometry x="80" y="60" width="440" height="80" as="geometry" />
        </mxCell>
        <mxCell id="3vBUMYRX011UeejNerha-26" value="日志" style="html=1;shadow=0;dashed=0;shape=mxgraph.bootstrap.rrect;rSize=5;strokeColor=none;strokeWidth=1;fillColor=#6C767D;fontColor=#FFFFFF;whiteSpace=wrap;align=center;verticalAlign=middle;spacingLeft=0;fontStyle=0;fontSize=14;spacing=5;" vertex="1" parent="1">
          <mxGeometry x="330" y="170" width="50" height="20" as="geometry" />
        </mxCell>
        <mxCell id="3vBUMYRX011UeejNerha-27" value="List" style="html=1;shadow=0;dashed=0;shape=mxgraph.bootstrap.rrect;rSize=5;strokeColor=#0085FC;strokeWidth=1;fillColor=none;fontColor=#0085FC;whiteSpace=wrap;align=center;verticalAlign=middle;spacingLeft=0;fontStyle=0;fontSize=16;spacing=5;" vertex="1" parent="1">
          <mxGeometry x="943" y="299.5" width="60" height="41" as="geometry" />
        </mxCell>
        <mxCell id="3vBUMYRX011UeejNerha-28" value="Task" style="html=1;shadow=0;dashed=0;shape=mxgraph.bootstrap.rrect;rSize=5;strokeColor=#0085FC;strokeWidth=1;fillColor=none;fontColor=#0085FC;whiteSpace=wrap;align=center;verticalAlign=middle;spacingLeft=0;fontStyle=0;fontSize=16;spacing=5;" vertex="1" parent="1">
          <mxGeometry x="785" y="240" width="298" height="40" as="geometry" />
        </mxCell>
        <mxCell id="3vBUMYRX011UeejNerha-29" value="Bitmap" style="html=1;shadow=0;dashed=0;shape=mxgraph.bootstrap.rrect;rSize=5;strokeColor=#0085FC;strokeWidth=1;fillColor=none;fontColor=#0085FC;whiteSpace=wrap;align=center;verticalAlign=middle;spacingLeft=0;fontStyle=0;fontSize=16;spacing=5;" vertex="1" parent="1">
          <mxGeometry x="1003" y="299.5" width="80" height="40" as="geometry" />
        </mxCell>
        <mxCell id="3vBUMYRX011UeejNerha-30" value="Timer" style="html=1;shadow=0;dashed=0;shape=mxgraph.bootstrap.rrect;rSize=5;strokeColor=#0085FC;strokeWidth=1;fillColor=none;fontColor=#0085FC;whiteSpace=wrap;align=center;verticalAlign=middle;spacingLeft=0;fontStyle=0;fontSize=16;spacing=5;" vertex="1" parent="1">
          <mxGeometry x="1096" y="300" width="128" height="68.5" as="geometry" />
        </mxCell>
        <mxCell id="3vBUMYRX011UeejNerha-32" value="Event" style="html=1;shadow=0;dashed=0;shape=mxgraph.bootstrap.rrect;rSize=5;strokeColor=#0085FC;strokeWidth=1;fillColor=none;fontColor=#0085FC;whiteSpace=wrap;align=center;verticalAlign=middle;spacingLeft=0;fontStyle=0;fontSize=16;spacing=5;" vertex="1" parent="1">
          <mxGeometry x="955" y="172" width="271" height="40" as="geometry" />
        </mxCell>
        <mxCell id="3vBUMYRX011UeejNerha-33" value="ARM" style="html=1;shadow=0;dashed=0;shape=mxgraph.bootstrap.rrect;rSize=5;strokeColor=#d79b00;strokeWidth=1;fillColor=#ffe6cc;whiteSpace=wrap;align=center;verticalAlign=middle;spacingLeft=0;fontStyle=0;fontSize=16;spacing=5;" vertex="1" parent="1">
          <mxGeometry x="740" y="396" width="493" height="43" as="geometry" />
        </mxCell>
        <mxCell id="3vBUMYRX011UeejNerha-34" value="Scheduler" style="html=1;shadow=0;dashed=0;shape=mxgraph.bootstrap.rrect;rSize=5;strokeColor=#0085FC;strokeWidth=1;fillColor=none;fontColor=#0085FC;whiteSpace=wrap;align=center;verticalAlign=middle;spacingLeft=0;fontStyle=0;fontSize=16;spacing=5;" vertex="1" parent="1">
          <mxGeometry x="783" y="300" width="77" height="67" as="geometry" />
        </mxCell>
        <mxCell id="3vBUMYRX011UeejNerha-35" value="Sem" style="html=1;shadow=0;dashed=0;shape=mxgraph.bootstrap.rrect;rSize=5;strokeColor=#0085FC;strokeWidth=1;fillColor=none;fontColor=#0085FC;whiteSpace=wrap;align=center;verticalAlign=middle;spacingLeft=0;fontStyle=0;fontSize=16;spacing=5;" vertex="1" parent="1">
          <mxGeometry x="955" y="105" width="46" height="40" as="geometry" />
        </mxCell>
        <mxCell id="3vBUMYRX011UeejNerha-36" value="Mailbox" style="html=1;shadow=0;dashed=0;shape=mxgraph.bootstrap.rrect;rSize=5;strokeColor=#0085FC;strokeWidth=1;fillColor=none;fontColor=#0085FC;whiteSpace=wrap;align=center;verticalAlign=middle;spacingLeft=0;fontStyle=0;fontSize=16;spacing=5;" vertex="1" parent="1">
          <mxGeometry x="1001" y="105" width="67" height="40" as="geometry" />
        </mxCell>
        <mxCell id="3vBUMYRX011UeejNerha-37" value="Mutex" style="html=1;shadow=0;dashed=0;shape=mxgraph.bootstrap.rrect;rSize=5;strokeColor=#0085FC;strokeWidth=1;fillColor=none;fontColor=#0085FC;whiteSpace=wrap;align=center;verticalAlign=middle;spacingLeft=0;fontStyle=0;fontSize=16;spacing=5;" vertex="1" parent="1">
          <mxGeometry x="1068" y="105" width="61" height="40" as="geometry" />
        </mxCell>
        <mxCell id="3vBUMYRX011UeejNerha-38" value="EventGroup" style="html=1;shadow=0;dashed=0;shape=mxgraph.bootstrap.rrect;rSize=5;strokeColor=#0085FC;strokeWidth=1;fillColor=none;fontColor=#0085FC;whiteSpace=wrap;align=center;verticalAlign=middle;spacingLeft=0;fontStyle=0;fontSize=16;spacing=5;" vertex="1" parent="1">
          <mxGeometry x="1129" y="105" width="92" height="40" as="geometry" />
        </mxCell>
        <mxCell id="3vBUMYRX011UeejNerha-40" value="Mempool" style="html=1;shadow=0;dashed=0;shape=mxgraph.bootstrap.rrect;rSize=5;strokeColor=#0085FC;strokeWidth=1;fillColor=none;fontColor=#0085FC;whiteSpace=wrap;align=center;verticalAlign=middle;spacingLeft=0;fontStyle=0;fontSize=16;spacing=5;" vertex="1" parent="1">
          <mxGeometry x="863" y="300" width="80" height="40" as="geometry" />
        </mxCell>
        <mxCell id="3vBUMYRX011UeejNerha-42" value="&lt;b&gt;&lt;font style=&quot;font-size: 15px&quot;&gt;Application&lt;/font&gt;&lt;/b&gt;" style="html=1;shadow=0;dashed=0;shape=mxgraph.bootstrap.rrect;rSize=5;strokeColor=#B8DCFE;strokeWidth=1;fillColor=#CCE7FE;fontColor=#004583;whiteSpace=wrap;align=center;verticalAlign=middle;spacingLeft=10;" vertex="1" parent="1">
          <mxGeometry x="737.5" y="28" width="495.5" height="46" as="geometry" />
        </mxCell>
        <mxCell id="3vBUMYRX011UeejNerha-44" value="LinRTOS&amp;nbsp;&lt;br&gt;Config" style="html=1;shadow=0;dashed=0;shape=mxgraph.bootstrap.rrect;rSize=5;strokeColor=#0085FC;strokeWidth=1;fillColor=none;fontColor=#0085FC;whiteSpace=wrap;align=center;verticalAlign=middle;spacingLeft=0;fontStyle=0;fontSize=16;spacing=5;" vertex="1" parent="1">
          <mxGeometry x="785" y="103" width="80" height="40" as="geometry" />
        </mxCell>
      </root>
    </mxGraphModel>
  </diagram>
</mxfile>
